<svg id="svg" version="1.1" xmlns="http://www.w3.org/2000/svg" xmlns:xlink="http://www.w3.org/1999/xlink" width="40" height="60" viewBox="0, 0, 400,400"><g id="svgg"><path id="path0" d="M0.000 200.000 L 0.000 400.000 143.633 400.000 C 293.808 400.000,290.064 400.042,285.145 398.400 C 282.652 397.568,279.473 394.676,266.119 381.089 C 265.855 380.820,265.405 380.394,265.119 380.142 C 264.834 379.890,253.980 369.040,241.000 356.030 C 228.020 343.021,214.070 329.047,210.000 324.977 C 205.930 320.908,202.392 317.358,202.137 317.089 C 201.882 316.820,198.282 313.218,194.137 309.084 C 189.992 304.950,186.392 301.350,186.137 301.084 C 185.882 300.818,182.282 297.218,178.137 293.084 C 173.992 288.950,170.392 285.350,170.137 285.084 C 169.882 284.818,166.282 281.218,162.137 277.084 C 157.992 272.950,154.384 269.350,154.119 269.084 C 153.855 268.818,153.405 268.393,153.119 268.141 C 146.625 262.397,94.603 209.333,93.570 207.400 C 91.582 203.679,91.600 196.181,93.607 192.600 C 95.864 188.571,281.923 2.671,284.400 1.969 C 286.322 1.425,287.200 0.918,287.200 0.351 C 287.200 0.150,225.709 0.000,143.600 0.000 L 0.000 0.000 0.000 200.000 M296.400 0.594 C 296.400 0.962,297.065 1.356,298.142 1.627 C 307.333 3.941,311.063 18.246,304.706 26.800 C 304.298 27.350,265.232 66.540,217.895 113.890 C 132.481 199.325,131.833 199.985,132.613 200.757 C 177.353 244.979,305.334 373.878,306.411 375.800 C 308.321 379.212,308.461 387.326,306.666 390.585 C 304.703 394.149,300.354 398.105,297.900 398.559 C 296.981 398.729,296.400 399.062,296.400 399.418 C 296.400 399.924,303.139 400.000,348.200 400.000 L 400.000 400.000 400.000 200.000 L 400.000 0.000 348.200 0.000 C 302.645 0.000,296.400 0.072,296.400 0.594 " stroke="none" fill="#fff" fill-rule="evenodd"></path><path id="path1" d="M286.954 0.701 C 286.713 1.087,285.636 1.638,284.561 1.926 C 281.965 2.620,96.020 188.292,93.607 192.600 C 91.600 196.181,91.582 203.679,93.570 207.400 C 94.603 209.333,146.625 262.397,153.119 268.141 C 153.405 268.393,153.855 268.818,154.119 269.084 C 154.384 269.350,157.992 272.950,162.137 277.084 C 166.282 281.218,169.882 284.818,170.137 285.084 C 170.392 285.350,173.992 288.950,178.137 293.084 C 182.282 297.218,185.882 300.818,186.137 301.084 C 186.392 301.350,189.992 304.950,194.137 309.084 C 198.282 313.218,201.882 316.820,202.137 317.089 C 202.392 317.358,205.930 320.908,210.000 324.977 C 214.070 329.047,228.020 343.021,241.000 356.030 C 253.980 369.040,264.834 379.890,265.119 380.142 C 265.405 380.394,265.855 380.820,266.119 381.089 C 279.401 394.602,282.894 397.779,285.132 398.382 C 286.072 398.635,286.941 399.102,287.063 399.421 C 287.392 400.276,296.400 400.273,296.400 399.418 C 296.400 399.062,296.981 398.729,297.900 398.559 C 300.354 398.105,304.703 394.149,306.666 390.585 C 308.461 387.326,308.321 379.212,306.411 375.800 C 305.334 373.878,177.353 244.979,132.613 200.757 C 131.833 199.985,132.481 199.325,217.895 113.890 C 265.232 66.540,304.298 27.350,304.706 26.800 C 311.063 18.246,307.333 3.941,298.142 1.627 C 297.065 1.356,296.400 0.962,296.400 0.594 C 296.400 -0.370,287.561 -0.270,286.954 0.701 " stroke="none" fill="#ec644b" fill-rule="evenodd"></path></g></svg>