<?xml version="1.0" standalone="no"?>
<!DOCTYPE svg PUBLIC "-//W3C//DTD SVG 20010904//EN"
 "http://www.w3.org/TR/2001/REC-SVG-20010904/DTD/svg10.dtd">
<svg version="1.0" xmlns="http://www.w3.org/2000/svg"
 width="512.000000pt" height="512.000000pt" viewBox="0 0 512.000000 512.000000"
 preserveAspectRatio="xMidYMid meet">

<g transform="translate(0.000000,512.000000) scale(0.100000,-0.100000)"
fill="#ec644b" stroke="none">
<path d="M2365 5114 c-266 -29 -428 -61 -617 -125 -759 -253 -1364 -858 -1617
-1617 -199 -594 -168 -1275 84 -1844 361 -815 1112 -1381 1995 -1505 172 -24
528 -24 700 0 820 115 1514 600 1913 1337 323 598 386 1355 167 2011 -308 919
-1115 1592 -2070 1724 -111 15 -473 28 -555 19z m300 -1179 c53 -31 1578
-1560 1601 -1605 27 -54 23 -138 -9 -191 -37 -63 -393 -414 -439 -434 -48 -19
-118 -19 -166 0 -26 11 -200 178 -564 543 l-528 527 -527 -527 c-365 -365
-539 -532 -565 -543 -48 -19 -118 -19 -166 0 -46 20 -402 371 -439 434 -32 53
-36 137 -9 191 20 40 1543 1570 1595 1602 68 43 145 44 216 3z"/>
</g>
</svg>
